<?xml version="1.0" encoding="UTF-8"?><!DOCTYPE svg PUBLIC "-//W3C//DTD SVG 1.1//EN" "http://www.w3.org/Graphics/SVG/1.1/DTD/svg11.dtd"><svg xmlns="http://www.w3.org/2000/svg"><symbol id="chochini" viewBox="0 0 501 297"><title>chochini</title><path d="M250.622 236.803l92.761 59.042 92.848-59.125v-90.166c-1.66 10.88-4.7 21.292-8.678 31.235-3.692 9.494-8.967 17.934-17.934 22.68-6.33 3.166-12.659 5.803-18.988 7.913-11.077 3.164-22.154 4.747-33.758 4.22-16.53-.827-32.483-5.395-46.058-13.703l-60.193 37.904zm-.382.072l-92.897 59.206-92.683-60.109-.17-84.16c1.878 8.987 4.223 17.647 7.555 25.977 3.692 8.967 8.967 17.406 17.934 22.68 5.802 3.166 12.131 5.803 18.988 7.913 11.077 3.164 22.154 4.747 33.758 4.22 17.212-.847 33.518-5.618 47.223-14.314l60.292 38.587zm-23.863-87.462c2.548-6.36 4.88-12.799 7.07-19.095 5.275-15.824 27.429-16.352 32.703 0 2.168 6.504 4.476 12.869 6.994 19.095h-46.767zm-8.692 0c.34-1.084.671-2.174.994-3.272 2.637-10.021 4.747-20.043 4.22-30.592-1.055-3.165-1.055-6.33-2.638-8.967-1.055-1.055-1.582-2.637-2.637-3.692-1.055-1.055-1.582-2.638-2.637-3.692-.528-1.055-1.583-1.583-2.638-2.638-2.11-2.11-4.747-3.692-7.384-4.747-12.659-5.802-26.373-8.44-40.614-10.022-14.77-1.055-29.01-1.055-43.78 1.055-9.494 1.055-18.988 3.165-27.955 6.857-5.802 2.11-11.077 5.802-13.186 12.132-1.583 3.692-2.638 7.912-3.165 11.604-2.637 19.516-.528 38.505 4.22 57.493 2.637 11.077 8.966 19.516 18.988 24.79 1.582.528 3.692 2.11 5.275 2.638 2.11 1.055 4.22 1.582 6.33 2.637 4.746 2.638 10.548 3.692 15.823 4.22 7.912 1.055 16.351.527 24.263 0 11.922-1.084 23.426-4.534 33.44-10.35l-27.376-17.52 45.878-27.934h14.579zm100.333 44.95c10.41 6.372 22.447 10.248 34.636 11.381 7.912.528 16.35 1.055 24.263 0 5.274-1.055 10.549-2.11 15.824-4.22 2.11-1.054 4.22-1.582 6.33-2.637 2.109-.527 3.691-1.582 5.274-2.637 10.021-5.274 16.351-14.241 18.988-24.79 5.275-18.989 6.857-38.505 4.22-56.966-.528-4.22-2.11-7.912-3.165-11.604-2.11-6.33-7.384-9.494-13.186-12.132-8.967-3.692-18.461-5.802-27.956-6.857-14.769-2.11-29.01-2.637-43.779-1.055-14.241 1.055-27.955 4.22-40.614 10.022-2.637 1.582-5.275 3.165-7.385 4.747-.527 1.055-1.582 1.583-2.637 2.637-1.055 1.055-1.582 2.638-2.637 3.693-1.055 1.055-2.11 2.637-2.638 3.692-1.582 2.637-2.11 5.802-2.637 8.967-.527 10.549 1.583 20.043 4.22 30.065.205.924.426 1.839.66 2.744h10.136l48.314 28.432-26.23 16.518zm-261.265-78.47l-22.86 33.138L.746 76.444 54.48 0l10.349 13.748v.156l371.15-.24L446.267 0 500 76.444l-33.149 72.587-23.337-33.83c1.642-1.936 3.86-3.36 6.72-4.4 2.637-.527 3.164-2.637 3.164-4.746 2.638-5.275 2.638-10.55 2.638-15.297 0-1.055 0-2.637-.528-3.692-.527-4.747-1.055-5.802-5.802-5.802-6.33-.528-12.131-.528-18.46-1.582-8.968-1.055-17.407-2.11-26.374-3.165-3.692-.528-7.384-.528-10.549-1.055l-18.989-1.582c-3.164 0-6.33-.528-9.494-.528-7.912-.527-15.296 0-23.208 1.055-5.275.527-10.022 1.055-15.296 1.582-6.857 1.055-14.242 2.11-21.099 3.693-8.44 1.582-16.878 3.692-25.318 5.802-10.022 2.11-19.516 3.164-29.538 3.164-10.021 0-19.516-.527-29.537-3.164-8.44-2.11-16.879-4.22-25.318-5.802-6.857-1.583-13.714-2.638-21.099-3.693-5.274-.527-10.021-1.055-15.296-1.582-7.912-1.055-15.296-1.582-23.208-1.055-3.165 0-6.33.528-9.495.528l-18.988 1.582c-3.692.527-7.385.527-10.55 1.055-8.966 1.055-17.405 2.11-26.372 3.165-6.33.527-12.132 1.054-18.461 1.582-4.747.527-5.802 1.582-5.802 5.802 0 1.055 0 2.637-.528 3.692 0 5.275-.527 10.022-.527 15.297 0 2.11.527 4.22 3.164 4.747 3.269.891 5.7 2.62 7.39 5.09zm88.553 56.238c17.696 0 32.041-13.178 32.041-29.434 0-16.255-14.345-29.433-32.041-29.433-17.697 0-32.042 13.178-32.042 29.433 0 16.256 14.345 29.434 32.042 29.434zm208.643 0c17.696 0 32.042-13.178 32.042-29.434 0-16.255-14.346-29.433-32.042-29.433s-32.041 13.178-32.041 29.433c0 16.256 14.345 29.434 32.041 29.434z" fill-rule="evenodd"/></symbol></svg>