<svg xmlns="http://www.w3.org/2000/svg"><symbol id="odin" viewBox="0 0 500 297"><title>odin</title><g fill-rule="evenodd"><path d="M252.305 238.349l90.333 57.496 92.848-59.125V104.643l30.62 44.388 33.149-72.587L445.52 0l-10.285 13.664-371.152.24v-.156L53.734 0 0 76.444l33.149 72.587 30.5-44.215.266 131.156 92.682 60.11 90.637-57.766 5.071.033zm-103.01-66.537c-1.545.21-3.126.32-4.735.32-17.696 0-32.041-13.179-32.041-29.435 0-16.255 14.345-29.433 32.041-29.433 17.697 0 32.042 13.178 32.042 29.433 0 1.965-.21 3.885-.61 5.743l-26.697 23.372zm171.889-30.2c.622-15.753 14.72-28.348 32.02-28.348 17.696 0 32.042 13.178 32.042 29.433 0 16.256-14.346 29.434-32.042 29.434a35.5 35.5 0 0 1-1.207-.02l-30.813-30.5zm-71.557 95.348l-93.144-59.613 45.877-27.934h92.83l48.314 28.432-93.877 59.115z"/><path d="M455.836 90.613c0-1.055 0-2.637-.527-3.692-.528-4.747-1.055-5.802-5.802-5.802-6.33-.528-12.132-.528-18.462-1.583-8.966-1.054-17.406-2.11-26.373-3.164-3.692-.528-7.384-.528-10.549-1.055l-18.988-1.583c-3.165 0-6.33-.527-9.495-.527-7.911-.528-15.296 0-23.208 1.055-5.274.527-10.021 1.055-15.296 1.582-6.857 1.055-14.241 2.11-21.098 3.692-8.44 1.583-16.88 3.693-25.319 5.802-10.021 2.11-19.516 3.165-29.537 3.165-10.022 0-19.516-.527-29.538-3.165-8.44-2.11-16.879-4.22-25.318-5.802-6.857-1.582-13.714-2.637-21.098-3.692-5.275-.527-10.022-1.055-15.297-1.582-7.912-1.055-15.296-1.583-23.208-1.055-3.165 0-6.33.527-9.494.527l-18.989 1.583c-3.692.527-7.384.527-10.549 1.055-8.967 1.055-17.406 2.11-26.373 3.164-6.33.528-12.132 1.055-18.461 1.583-4.747.527-5.802 1.582-5.802 5.802 0 1.055 0 2.637-.528 3.692 0 5.275-.527 10.022-.527 15.296 0 2.11.527 4.22 3.165 4.748 5.802 1.582 8.967 5.802 10.021 12.131 1.055 7.385 2.638 14.769 3.693 21.626 2.11 11.604 4.747 22.68 8.967 33.23 3.692 8.967 8.966 17.406 17.933 22.68 5.802 3.165 12.132 5.803 18.989 7.913 11.076 3.164 22.153 4.747 33.757 4.22 32.175-1.583 61.185-16.88 75.954-45.89 5.802-11.604 10.55-24.263 14.77-36.394 5.274-15.824 27.427-16.352 32.702 0 4.22 12.659 8.966 24.79 14.768 36.394 14.77 29.01 44.307 44.307 75.955 45.89 11.604.527 22.68-1.056 33.757-4.22 6.33-2.11 12.66-4.748 18.989-7.912 8.966-4.747 14.241-13.187 17.933-22.681 4.22-10.55 7.385-21.626 8.967-33.23 1.055-7.384 2.637-14.769 3.692-21.626 1.055-6.33 4.22-10.022 10.022-12.131 2.637-.528 3.165-2.638 3.165-4.748 2.637-5.274 2.637-10.549 2.637-15.296zM218.48 145.996c-2.637 8.967-5.802 17.407-10.549 25.846-12.131 20.043-33.757 31.12-56.966 33.23-7.911.527-16.35 1.055-24.263 0-5.274-.528-11.076-1.583-15.823-4.22-2.11-1.055-4.22-1.582-6.33-2.637-1.582-.528-3.692-2.11-5.275-2.637-10.021-5.275-16.35-13.714-18.988-24.791-4.747-18.989-6.857-37.977-4.22-57.493.528-3.692 1.583-7.912 3.165-11.604 2.11-6.33 7.384-10.022 13.186-12.132 8.967-3.692 18.462-5.802 27.956-6.857 14.769-2.11 29.01-2.11 43.779-1.055 14.241 1.583 27.955 4.22 40.614 10.022 2.638 1.055 5.275 2.637 7.385 4.747 1.055 1.055 2.11 1.583 2.637 2.637 1.055 1.055 1.582 2.638 2.637 3.693 1.055 1.055 1.583 2.637 2.638 3.692 1.582 2.637 1.582 5.802 2.637 8.967.527 10.549-1.582 20.57-4.22 30.592zm204.655 25.318c-2.638 10.55-8.967 19.516-18.989 24.791-1.582 1.055-3.165 2.11-5.275 2.637-2.11 1.055-4.22 1.583-6.33 2.638-5.274 2.11-10.548 3.164-15.823 4.22-7.912 1.054-16.351.527-24.263 0-22.68-2.11-44.834-13.715-56.966-33.23-4.747-7.913-8.439-16.352-10.549-25.846-2.637-10.022-4.747-19.516-4.22-30.065.528-3.165 1.055-6.33 2.638-8.967.527-1.055 1.582-2.638 2.637-3.692 1.055-1.055 1.582-2.638 2.637-3.693 1.055-1.055 2.11-1.582 2.638-2.637 2.11-1.582 4.747-3.165 7.384-4.747 12.66-5.802 26.373-8.967 40.615-10.022 14.768-1.582 29.01-1.055 43.779 1.055 9.494 1.055 18.988 3.165 27.955 6.857 5.802 2.637 11.077 5.802 13.186 12.132 1.055 3.692 2.638 7.384 3.165 11.604 2.638 18.46 1.055 37.977-4.22 56.965z" stroke-width="2"/></g></symbol></svg>