<svg xmlns="http://www.w3.org/2000/svg"><symbol id="odin" viewBox="0 0 500 297"><title>odin</title><g><path d="M252.305 238.349l90.333 57.496 92.848-59.125V104.643l30.62 44.388 33.149-72.587L445.52 0l-10.285 13.664-371.152.24v-.156L53.734 0 0 76.444l33.149 72.587 30.5-44.215.266 131.156 92.682 60.11 90.637-57.766 5.071.033zm-103.01-66.537c-1.545.21-3.126.32-4.735.32-17.696 0-32.041-13.179-32.041-29.435 0-16.255 14.345-29.433 32.041-29.433 17.697 0 32.042 13.178 32.042 29.433 0 1.965-.21 3.885-.61 5.743l-26.697 23.372zm171.889-30.2c.622-15.753 14.72-28.348 32.02-28.348 17.696 0 32.042 13.178 32.042 29.433 0 16.256-14.346 29.434-32.042 29.434a35.5 35.5 0 0 1-1.207-.02l-30.813-30.5zm-71.557 95.348l-93.144-59.613 45.877-27.934h92.83l48.314 28.432-93.877 59.115z"/><path d="M455.836 90.613c0-1.055 0-2.637-.527-3.692-.528-4.747-1.055-5.802-5.802-5.802-6.33-.528-12.132-.528-18.462-1.583-8.966-1.054-17.406-2.11-26.373-3.164-3.692-.528-7.384-.528-10.549-1.055l-18.988-1.583c-3.165 0-6.33-.527-9.495-.527-7.911-.528-15.296 0-23.208 1.055-5.274.527-10.021 1.055-15.296 1.582-6.857 1.055-14.241 2.11-21.098 3.692-8.44 1.583-16.88 3.693-25.319 5.802-10.021 2.11-19.516 3.165-29.537 3.165-10.022 0-19.516-.527-29.538-3.165-8.44-2.11-16.879-4.22-25.318-5.802-6.857-1.582-13.714-2.637-21.098-3.692-5.275-.527-10.022-1.055-15.297-1.582-7.912-1.055-15.296-1.583-23.208-1.055-3.165 0-6.33.527-9.494.527l-18.989 1.583c-3.692.527-7.384.527-10.549 1.055-8.967 1.055-17.406 2.11-26.373 3.164-6.33.528-12.132 1.055-18.461 1.583-4.747.527-5.802 1.582-5.802 5.802 0 1.055 0 2.637-.528 3.692 0 5.275-.527 10.022-.527 15.296 0 2.11.527 4.22 3.165 4.748 5.802 1.582 8.967 5.802 10.021 12.131 1.055 7.385 2.638 14.769 3.693 21.626 2.11 11.604 4.747 22.68 8.967 33.23 3.692 8.967 8.966 17.406 17.933 22.68 5.802 3.165 12.132 5.803 18.989 7.913 11.076 3.164 22.153 4.747 33.757 4.22 32.175-1.583 61.185-16.88 75.954-45.89 5.802-11.604 10.55-24.263 14.77-36.394 5.274-15.824 27.427-16.352 32.702 0 4.22 12.659 8.966 24.79 14.768 36.394 14.77 29.01 44.307 44.307 75.955 45.89 11.604.527 22.68-1.056 33.757-4.22 6.33-2.11 12.66-4.748 18.989-7.912 8.966-4.747 14.241-13.187 17.933-22.681 4.22-10.55 7.385-21.626 8.967-33.23 1.055-7.384 2.637-14.769 3.692-21.626 1.055-6.33 4.22-10.022 10.022-12.131 2.637-.528 3.165-2.638 3.165-4.748 2.637-5.274 2.637-10.549 2.637-15.296zM218.48 145.996c-2.637 8.967-5.802 17.407-10.549 25.846-12.131 20.043-33.757 31.12-56.966 33.23-7.911.527-16.35 1.055-24.263 0-5.274-.528-11.076-1.583-15.823-4.22-2.11-1.055-4.22-1.582-6.33-2.637-1.582-.528-3.692-2.11-5.275-2.637-10.021-5.275-16.35-13.714-18.988-24.791-4.747-18.989-6.857-37.977-4.22-57.493.528-3.692 1.583-7.912 3.165-11.604 2.11-6.33 7.384-10.022 13.186-12.132 8.967-3.692 18.462-5.802 27.956-6.857 14.769-2.11 29.01-2.11 43.779-1.055 14.241 1.583 27.955 4.22 40.614 10.022 2.638 1.055 5.275 2.637 7.385 4.747 1.055 1.055 2.11 1.583 2.637 2.637 1.055 1.055 1.582 2.638 2.637 3.693 1.055 1.055 1.583 2.637 2.638 3.692 1.582 2.637 1.582 5.802 2.637 8.967.527 10.549-1.582 20.57-4.22 30.592zm204.655 25.318c-2.638 10.55-8.967 19.516-18.989 24.791-1.582 1.055-3.165 2.11-5.275 2.637-2.11 1.055-4.22 1.583-6.33 2.638-5.274 2.11-10.548 3.164-15.823 4.22-7.912 1.054-16.351.527-24.263 0-22.68-2.11-44.834-13.715-56.966-33.23-4.747-7.913-8.439-16.352-10.549-25.846-2.637-10.022-4.747-19.516-4.22-30.065.528-3.165 1.055-6.33 2.638-8.967.527-1.055 1.582-2.638 2.637-3.692 1.055-1.055 1.582-2.638 2.637-3.693 1.055-1.055 2.11-1.582 2.638-2.637 2.11-1.582 4.747-3.165 7.384-4.747 12.66-5.802 26.373-8.967 40.615-10.022 14.768-1.582 29.01-1.055 43.779 1.055 9.494 1.055 18.988 3.165 27.955 6.857 5.802 2.637 11.077 5.802 13.186 12.132 1.055 3.692 2.638 7.384 3.165 11.604 2.638 18.46 1.055 37.977-4.22 56.965z"/></g></symbol><symbol id="pug" viewBox="0 0 256 256"><title>Pug</title><circle cx="128" cy="128" r="128"/><path d="M166.493 203.683a113.227 113.227 0 0 1-78.29 0c-2.327-.838-4.188-3.584-4.188-5.958v-6.097c0-2.374 1.861-3.538 4.189-2.7a113.227 113.227 0 0 0 78.29 0c2.326-.838 4.188.326 4.188 2.7v6.097c-.046 2.374-1.908 5.12-4.189 5.958z"/><path d="M166.493 196.236c-25.274 12.94-53.015 12.94-78.29 0-2.327-1.164-4.188-4.98-4.188-8.285v-8.425c0-3.305 1.861-4.934 4.189-3.724 25.274 12.94 53.015 12.94 78.29 0 2.326-1.163 4.188.42 4.188 3.724v8.425c-.046 3.304-1.908 7.121-4.189 8.285z"/><g transform="translate(117.76 202.938)"><ellipse cx="9.588" cy="3.91" rx="3.584" ry="3.584"/><ellipse cx="9.588" cy="3.398" rx="3.072" ry="3.072"/><ellipse cx="10.473" cy="4.468" rx="1.071" ry="1.071"/><ellipse cx="9.588" cy="15.546" rx="9.588" ry="9.588"/><circle cx="9.588" cy="15.639" r="8.611"/><path d="M12.102 12.893c.512.466.791 1.117.791 2.048s-.28 1.583-.791 2.048c-.559.419-1.35.652-2.467.652h-.978v2.094H6.982v-7.494h2.653c1.117 0 1.955.187 2.467.652zm-1.21 2.932c.186-.232.279-.558.279-.977 0-.419-.14-.745-.372-.93-.28-.187-.652-.28-1.21-.28h-.932v2.513h1.118c.558 0 .93-.093 1.117-.326z"/></g><path d="M205.033 140.474c2.327 31.884-32.163 60.51-77.22 60.463-45.009.046-79.545-28.58-77.218-60.463 2.327-31.977 37.004-58.368 77.312-58.414 40.355.046 74.752 26.437 77.126 58.414z"/><path d="M127.674 77.591c-42.356 0-81.687 29.836-74.24 75.264 1.49 4.19 3.957 15.081 15.733 24.716 3.537 2.886 9.634 5.306 12.52 3.351 7.401-5.027-5.725-19.456 9.263-32.768h-.326c8.145-6.19 19.689-11.124 36.957-11.124s28.812 4.934 36.957 11.124h-.326c14.988 13.312 1.909 27.741 9.263 32.768 2.886 1.955 9.03-.465 12.52-3.351 11.777-9.635 14.29-20.527 15.78-24.716 7.447-45.475-31.744-75.264-74.1-75.264z"/><path d="M164.12 153.041c-7.122-8.75-20.62-17.221-36.306-17.221h-.186c-15.733 0-29.23 8.47-36.306 17.221-7.354 8.937-4.7 12.754-4.7 21.318 0 31 10.844 21.97 18.152 25.693 7.447 3.63 14.987 2.328 22.9 2.328h.14c7.913 0 15.453 1.303 22.9-2.374 7.261-3.724 18.153 5.4 18.153-25.6-.047-8.518 2.606-12.428-4.748-21.365z"/><g transform="translate(62.37 123.81)"><circle cx="13.033" cy="15.453" r="12.986"/><circle cx="14.196" cy="13.265" r="12.986"/><circle cx="17.501" cy="7.447" r="3.351"/></g><g transform="translate(165.702 123.81)"><circle cx="13.964" cy="15.453" r="12.986"/><circle cx="13.219" cy="13.265" r="12.986"/><circle cx="16.524" cy="7.447" r="3.351"/></g><path d="M100.352 89.228s-43.985 7.587-45.754 60.136c-.047.792-.885 1.304-1.583.885l-1.396-.838-1.07-13.778 2-28.113 18.34-13.545 16.477-6.656 12.986 1.909zM154.95 89.228s43.985 7.587 45.754 60.136c.047.792.884 1.304 1.583.885l1.396-.838 1.07-13.778-2.001-28.113-18.339-13.545-16.477-6.656-12.986 1.909z"/><path d="M126.753 182.81V156.3h1.936v26.447c2.853.335 6.56 1.993 10.11 3.062 3.677 1.304 7.214 1.816 5.818 2.002-4.841.186-10.147-1.63-16.664-1.536-6.562-.093-11.869 1.722-16.663 1.536-1.396-.233 2.141-.745 5.818-2.002 3.366-1.013 6.837-2.557 9.645-3zm13.116-35.447c1.536 3.398-3.77 8.937-12.195 8.937s-13.73-5.54-12.195-8.937c1.49-3.491 6.842-4.608 12.195-4.655 5.353.047 10.706 1.164 12.195 4.655z"/><path d="M100.352 89.228s-51.805 7.168-47.337 58.6c.233 2.607-10.333-11.124-18.525-15.313-8.192-4.19-7.913-17.734-7.913-17.734s-.14-23.598 32.955-30.58c33.047-6.936 40.82 5.027 40.82 5.027zm54.598 0s51.805 7.168 47.337 58.6c-.233 2.607 10.333-11.124 18.525-15.313 8.192-4.19 7.912-17.734 7.912-17.734s.14-23.598-32.954-30.58c-33.047-6.936-40.82 5.027-40.82 5.027z"/><path d="M127.72 126.278c-16.104 0-32.395 15.825-28.997 14.057 6.284-3.305 9.914-9.123 28.998-9.123 19.083 0 22.667 5.818 28.998 9.123 3.397 1.768-12.894-14.057-28.998-14.057z"/><path d="M127.72 119.343c-12.24 0-24.575 12.008-22.015 10.658 4.794-2.513 10.938-6.935 22.016-6.935 11.078 0 17.222 4.422 22.016 6.935 2.56 1.35-9.775-10.658-22.016-10.658zM127.628 80.384c-13.499 0-27.183 7.727-24.344 6.842 5.307-1.629 12.102-4.468 24.344-4.468 12.241 0 19.037 2.84 24.343 4.468 2.84.885-10.799-6.842-24.343-6.842z"/><path d="M130.746 145.501c.373.838-.93 2.188-3.025 2.188-2.095 0-3.398-1.35-3.026-2.188.373-.838 1.676-1.117 3.026-1.164 1.303 0 2.653.28 3.025 1.164z"/></symbol></svg>