<?xml version="1.0" encoding="UTF-8" standalone="no"?>
<svg width="500px" height="297px" viewBox="0 0 500 297" version="1.1" xmlns="http://www.w3.org/2000/svg" xmlns:xlink="http://www.w3.org/1999/xlink">
    <!-- Generator: Sketch 3.6.1 (26313) - http://www.bohemiancoding.com/sketch -->
    <title>odin</title>
    <desc>Created with Sketch.</desc>
    <defs></defs>
    <g id="Page-1" stroke="none" stroke-width="1" fill="none" fill-rule="evenodd">
        <g id="odin" transform="translate(-35.000000, -43.000000)">
            <g transform="translate(35.000000, 43.000000)">
                <path d="M252.305336,238.348789 L342.638087,295.844588 L435.486234,236.720108 L435.486249,104.642591 L466.106263,149.031297 L499.254844,76.4440482 L445.520469,0 L435.23472,13.664288 L64.0834575,13.9036616 L64.0834575,13.7484254 L53.7343746,0 L2.13162821e-14,76.4440482 L33.1485803,149.031297 L63.6492811,104.815555 L63.914633,235.972041 L156.597352,296.081331 L247.233986,238.315583 L252.305336,238.348789 Z M149.29535,171.811997 C147.750218,172.022235 146.169134,172.131148 144.560358,172.131148 C126.8642,172.131148 112.518629,158.95324 112.518629,142.697466 C112.518629,126.441693 126.8642,113.263785 144.560358,113.263785 C162.256516,113.263785 176.602086,126.441693 176.602086,142.697466 C176.602086,144.662453 176.392472,146.582466 175.992662,148.439667 L149.29535,171.811997 Z M321.183834,141.611874 C321.805584,125.859027 335.903658,113.263785 353.204173,113.263785 C370.900331,113.263785 385.245902,126.441693 385.245902,142.697466 C385.245902,158.95324 370.900331,172.131148 353.204173,172.131148 C352.800057,172.131148 352.397688,172.124275 351.997198,172.110651 L321.183834,141.611874 Z M249.627422,236.959762 L156.482861,177.347243 L202.360423,149.412607 L295.189666,149.412607 L343.503585,177.845166 L249.627422,236.959762 Z" id="cara" fill="#4990E2"></path>
                <path d="M455.836066,90.6130899 C455.836066,89.5581708 455.836066,87.9757922 455.308606,86.9208731 C454.781146,82.1737372 454.253687,81.1188181 449.506551,81.1188181 C443.177037,80.5913585 437.374982,80.5913585 431.045467,79.5364395 C422.078655,78.4815204 413.639302,77.4266013 404.67249,76.3716822 C400.980273,75.8442227 397.288056,75.8442227 394.123299,75.3167631 C387.793784,74.7893036 381.46427,74.261844 375.134755,73.7343845 C371.969998,73.7343845 368.805241,73.2069249 365.640484,73.2069249 C357.72859,72.6794654 350.344157,73.2069249 342.432264,74.261844 C337.157668,74.7893036 332.410532,75.3167631 327.135937,75.8442227 C320.278963,76.8991417 312.894529,77.9540608 306.037555,79.5364395 C297.598202,81.1188181 289.15885,83.2286563 280.719497,85.3384944 C270.697766,87.4483326 261.203494,88.5032517 251.181763,88.5032517 C241.160031,88.5032517 231.665759,87.9757922 221.644028,85.3384944 C213.204675,83.2286563 204.765323,81.1188181 196.32597,79.5364395 C189.468996,77.9540608 182.612022,76.8991417 175.227588,75.8442227 C169.952993,75.3167631 165.205857,74.7893036 159.931261,74.261844 C152.019368,73.2069249 144.634935,72.6794654 136.723042,73.2069249 C133.558284,73.2069249 130.393527,73.7343845 127.22877,73.7343845 C120.899255,74.261844 114.569741,74.7893036 108.240226,75.3167631 C104.548009,75.8442227 100.855793,75.8442227 97.6910353,76.3716822 C88.7242231,77.4266013 80.2848704,78.4815204 71.3180581,79.5364395 C64.9885436,80.063899 59.1864886,80.5913585 52.8569741,81.1188181 C48.1098382,81.6462776 47.0549191,82.7011967 47.0549191,86.9208731 C47.0549191,87.9757922 47.0549191,89.5581708 46.5274595,90.6130899 C46.5274595,95.8876853 46,100.634821 46,105.909417 C46,108.019255 46.5274595,110.129093 49.1647573,110.656553 C54.9668122,112.238931 58.1315695,116.458608 59.1864886,122.788122 C60.2414077,130.172556 61.8237863,137.556989 62.8787054,144.413963 C64.9885436,156.018073 67.6258413,167.094724 71.8455176,177.643915 C75.5377345,186.610727 80.8123299,195.05008 89.7791421,200.324675 C95.5811971,203.489432 101.910712,206.12673 108.767686,208.236568 C119.844336,211.401325 130.920987,212.983704 142.525097,212.456245 C174.700129,210.873866 203.710404,195.577539 218.479271,166.567264 C224.281326,154.963154 229.028462,142.304125 233.248138,130.172556 C238.522734,114.348769 260.676034,113.82131 265.95063,130.172556 C270.170306,142.831585 274.917442,154.963154 280.719497,166.567264 C295.488364,195.577539 325.026099,210.873866 356.673671,212.456245 C368.277781,212.983704 379.354432,211.401325 390.431082,208.236568 C396.760597,206.12673 403.090111,203.489432 409.419626,200.324675 C418.386438,195.577539 423.661033,187.138186 427.35325,177.643915 C431.572927,167.094724 434.737684,156.018073 436.320062,144.413963 C437.374982,137.02953 438.95736,129.645096 440.012279,122.788122 C441.067198,116.458608 444.231956,112.766391 450.034011,110.656553 C452.671308,110.129093 453.198768,108.019255 453.198768,105.909417 C455.836066,100.634821 455.836066,95.3602258 455.836066,90.6130899 L455.836066,90.6130899 Z M218.479271,145.996342 C215.841973,154.963154 212.677216,163.402507 207.93008,171.84186 C195.79851,191.885322 174.172669,202.961973 150.964449,205.071811 C143.052556,205.59927 134.613203,206.12673 126.70131,205.071811 C121.426715,204.544351 115.62466,203.489432 110.877524,200.852135 C108.767686,199.797215 106.657848,199.269756 104.548009,198.214837 C102.965631,197.687377 100.855793,196.104999 99.2734139,195.577539 C89.2516826,190.302944 82.9221681,181.863591 80.2848704,170.786941 C75.5377345,151.798397 73.4278963,132.809853 76.065194,113.29385 C76.5926535,109.601633 77.6475726,105.381957 79.2299513,101.68974 C81.3397894,95.3602258 86.6143849,91.668009 92.4164399,89.5581708 C101.383252,85.865954 110.877524,83.7561158 120.371796,82.7011967 C135.140663,80.5913585 149.382071,80.5913585 164.150938,81.6462776 C178.392346,83.2286563 192.106294,85.865954 204.765323,91.668009 C207.40262,92.7229281 210.039918,94.3053067 212.149756,96.4151449 C213.204675,97.470064 214.259594,97.9975235 214.787054,99.0524426 C215.841973,100.107362 216.369433,101.68974 217.424352,102.744659 C218.479271,103.799578 219.00673,105.381957 220.061649,106.436876 C221.644028,109.074174 221.644028,112.238931 222.698947,115.403688 C223.226407,125.952879 221.116569,135.974611 218.479271,145.996342 L218.479271,145.996342 Z M423.133574,171.3144 C420.496276,181.863591 414.166762,190.830403 404.14503,196.104999 C402.562652,197.159918 400.980273,198.214837 398.870435,198.742296 C396.760597,199.797215 394.650758,200.324675 392.54092,201.379594 C387.266325,203.489432 381.991729,204.544351 376.717134,205.59927 C368.805241,206.65419 360.365888,206.12673 352.453995,205.59927 C329.773235,203.489432 307.619934,191.885322 295.488364,172.369319 C290.741228,164.457426 287.049012,156.018073 284.939173,146.523802 C282.301876,136.50207 280.192037,127.007798 280.719497,116.458608 C281.246957,113.29385 281.774416,110.129093 283.356795,107.491795 C283.884254,106.436876 284.939173,104.854498 285.994092,103.799578 C287.049012,102.744659 287.576471,101.162281 288.63139,100.107362 C289.686309,99.0524426 290.741228,98.524983 291.268688,97.470064 C293.378526,95.8876853 296.015824,94.3053067 298.653122,92.7229281 C311.312151,86.9208731 325.026099,83.7561158 339.267506,82.7011967 C354.036374,81.1188181 368.277781,81.6462776 383.046649,83.7561158 C392.54092,84.8110349 402.035192,86.9208731 411.002004,90.6130899 C416.804059,93.2503876 422.078655,96.4151449 424.188493,102.744659 C425.243412,106.436876 426.825791,110.129093 427.35325,114.348769 C429.990548,132.809853 428.408169,152.325857 423.133574,171.3144 L423.133574,171.3144 Z" id="Lentes" stroke="#F6A623" stroke-width="2"></path>
            </g>
        </g>
    </g>
</svg>